# Blender v3.1.2 OBJ File: 'locker.blend'
# www.blender.org
mtllib locker.mtl
o locker_door_large_r
v -1.000000 0.000000 0.125000
v -1.000000 2.000000 0.125000
v -1.000000 0.000000 0.000000
v -1.000000 2.000000 0.000000
v 0.000000 0.000000 0.125000
v 0.000000 2.000000 0.125000
v 0.000000 0.000000 0.000000
v 0.000000 2.000000 0.000000
v -0.875000 0.875000 0.187500
v -0.875000 1.125000 0.187500
v -0.875000 0.875000 0.125000
v -0.875000 1.125000 0.125000
v -0.750000 0.875000 0.187500
v -0.750000 1.125000 0.187500
v -0.750000 0.875000 0.125000
v -0.750000 1.125000 0.125000
vt 0.750000 0.500000
vt 0.750000 0.000000
vt 1.000000 0.000000
vt 1.000000 0.500000
vt 0.250000 0.500000
vt 0.250000 0.000000
vt 0.500000 0.000000
vt 0.500000 0.500000
vt 0.500000 0.734375
vt 0.500000 0.765625
vt 0.250000 0.765625
vt 0.250000 0.734375
vt 0.500000 0.484375
vt 0.500000 0.515625
vt 0.250000 0.515625
vt 0.250000 0.484375
vt 0.265625 0.000000
vt 0.265625 0.500000
vt 0.234375 0.500000
vt 0.234375 -0.000000
vt 0.515625 0.500000
vt 0.484375 0.500000
vt 0.484375 -0.000000
vt 0.515625 0.000000
vt 0.015625 0.609375
vt 0.015625 0.671875
vt 0.000000 0.671875
vt 0.000000 0.609375
vt 0.031250 0.640625
vt 0.031250 0.671875
vt 0.015625 0.671875
vt 0.015625 0.640625
vt 0.000000 0.500000
vt 0.031250 0.500000
vt 0.031250 0.515625
vt 0.000000 0.515625
vt 0.031250 0.781250
vt 0.000000 0.781250
vt 0.000000 0.765625
vt 0.031250 0.765625
vt 0.031250 0.687500
vt 0.031250 0.750000
vt 0.000000 0.750000
vt -0.000000 0.687500
vn 0.0000 0.0000 -1.0000
vn 0.0000 0.0000 1.0000
vn 0.0000 -1.0000 0.0000
vn 0.0000 1.0000 0.0000
vn -1.0000 0.0000 0.0000
vn 1.0000 0.0000 0.0000
usemtl locker
s off
f 8/1/1 7/2/1 3/3/1 4/4/1
f 2/5/2 1/6/2 5/7/2 6/8/2
f 7/9/3 5/10/3 1/11/3 3/12/3
f 6/13/4 8/14/4 4/15/4 2/16/4
f 1/17/5 2/18/5 4/19/5 3/20/5
f 8/21/6 6/22/6 5/23/6 7/24/6
f 9/25/5 10/26/5 12/27/5 11/28/5
f 15/29/6 16/30/6 14/31/6 13/32/6
f 11/33/3 15/34/3 13/35/3 9/36/3
f 16/37/4 12/38/4 10/39/4 14/40/4
f 13/41/2 14/42/2 10/43/2 9/44/2
