# Blender v3.1.2 OBJ File: 'locker.blend'
# www.blender.org
mtllib locker.mtl
o locker
v 0.000000 0.000000 0.875000
v 0.000000 1.000000 0.875000
v 0.000000 0.000000 0.000000
v 0.000000 1.000000 0.000000
v 1.000000 0.000000 0.875000
v 1.000000 1.000000 0.875000
v 1.000000 0.000000 0.000000
v 1.000000 1.000000 0.000000
vt 0.250000 1.000000
vt 0.000000 1.000000
vt 0.000000 0.781250
vt 0.250000 0.781250
vt 0.718750 0.500000
vt 0.718750 0.750000
vt 0.500000 0.750000
vt 0.500000 0.500000
vt 0.500000 0.750000
vt 0.500000 1.000000
vt 0.250000 1.000000
vt 0.250000 0.750000
vt 0.250000 0.781250
vt 0.250000 1.000000
vt 0.000000 1.000000
vt 0.000000 0.781250
vt 0.250000 0.750000
vt 0.250000 0.500000
vt 0.031250 0.750000
vt 0.031250 0.500000
vn 0.0000 1.0000 0.0000
vn -1.0000 0.0000 0.0000
vn 0.0000 0.0000 1.0000
vn 0.0000 -1.0000 0.0000
vn 0.0000 0.0000 -1.0000
vn 1.0000 0.0000 0.0000
usemtl locker
s off
f 8/1/1 4/2/1 2/3/1 6/4/1
f 1/5/2 2/6/2 4/7/2 3/8/2
f 5/9/3 6/10/3 2/11/3 1/12/3
f 7/13/4 5/14/4 1/15/4 3/16/4
f 4/7/5 8/17/5 7/18/5 3/8/5
f 8/17/6 6/19/6 5/20/6 7/18/6
